name analog
datacolumns 19
datarows 55
range 0.0 0.027
endheader
time	ground_force_vx	ground_force_vy	ground_force_vz	ground_force_px	ground_force_py	ground_force_pz	l_ground_force_vx	l_ground_force_vy	l_ground_force_vz	l_ground_force_px	l_ground_force_py	l_ground_force_pz	ground_torque_x	ground_torque_y	ground_torque_z	l_ground_torque_x	l_ground_torque_y	l_ground_torque_z
0.0	-0.0	-0.0	-0.0	5.778935432434082	16.25167465209961	-493.0014953613281	-7.106911659240723	-16.044963836669922	-124.64712524414062	-0.0	-0.0	-0.0	-0.0	-0.0	-0.0	39177.68359375	8545.6181640625	-3934.718994140625
0.0005	-0.0	-0.0	-0.0	5.620262145996094	16.37124252319336	-490.4055480957031	-6.623347282409668	-16.12387466430664	-124.10297393798828	-0.0	-0.0	-0.0	-0.0	-0.0	-0.0	39226.07421875	8630.607421875	-4026.94091796875
0.001	-0.0	-0.0	-0.0	5.679112434387207	15.963207244873049	-492.8062133789063	-6.850265979766846	-16.212289810180664	-125.07316589355467	-0.0	-0.0	-0.0	-0.0	-0.0	-0.0	39128.80078125	8495.15625	-3983.97119140625
0.0015	-0.0	-0.0	-0.0	5.472388744354248	16.073991775512695	-493.7890930175781	-6.495360851287842	-16.544160842895508	-124.8004150390625	-0.0	-0.0	-0.0	-0.0	-0.0	-0.0	39411.0703125	8585.6533203125	-3865.14697265625
0.002	-0.0	-0.0	-0.0	5.988429069519043	16.10183334350586	-492.4869995117188	-6.949979305267334	-16.516155242919922	-124.3857192993164	-0.0	-0.0	-0.0	-0.0	-0.0	-0.0	39136.92578125	8684.009765625	-3911.82275390625
0.0025	-0.0	-0.0	-0.0	5.977104187011719	16.46971893310547	-492.3641357421875	-7.127543926239014	-16.174156188964844	-125.42156219482422	-0.0	-0.0	-0.0	-0.0	-0.0	-0.0	39413.98046875	8467.2265625	-3848.77490234375
0.003	-0.0	-0.0	-0.0	5.5460357666015625	15.954341888427734	-491.7327270507813	-6.919441223144531	-16.327896118164062	-124.79873657226562	-0.0	-0.0	-0.0	-0.0	-0.0	-0.0	39097.8515625	8594.9755859375	-3861.491943359375
0.0035	-0.0	-0.0	-0.0	5.461118698120117	16.120513916015625	-492.6097106933594	-7.05846643447876	-16.497041702270508	-125.22296142578124	-0.0	-0.0	-0.0	-0.0	-0.0	-0.0	39268.06640625	8562.2578125	-3960.947021484375
0.004	-0.0	-0.0	-0.0	5.524114608764648	16.062685012817383	-491.4742126464844	-7.128122329711914	-16.85037612915039	-126.04373168945312	-0.0	-0.0	-0.0	-0.0	-0.0	-0.0	39655.6796875	8824.4541015625	-3931.40625
0.0045000000000000005	-0.0	-0.0	-0.0	5.524529457092285	15.922599792480469	-491.6006774902344	-7.217080593109131	-17.0898380279541	-126.99004364013672	-0.0	-0.0	-0.0	-0.0	-0.0	-0.0	39678.79296875	8533.5322265625	-3901.8388671875
0.005	-0.0	-0.0	-0.0	5.409926414489746	15.84613037109375	-492.3079833984375	-7.046192646026611	-16.604476928710938	-125.49514770507812	-0.0	-0.0	-0.0	-0.0	-0.0	-0.0	39552.02734375	8625.71875	-3884.634521484375
0.0055	-0.0	-0.0	-0.0	5.384733200073242	16.05652618408203	-490.7413024902344	-6.976315498352051	-16.83169174194336	-127.26718139648438	-0.0	-0.0	-0.0	-0.0	-0.0	-0.0	39589.359375	8871.0849609375	-3935.535888671875
0.006	-0.0	-0.0	-0.0	5.1742095947265625	15.79501724243164	-492.23583984375	-7.008152008056641	-16.730384826660156	-126.54146575927734	-0.0	-0.0	-0.0	-0.0	-0.0	-0.0	39649.1953125	8686.0712890625	-3971.591552734375
0.006500000000000001	-0.0	-0.0	-0.0	5.525737285614014	15.865211486816406	-491.62646484375	-7.268856525421143	-16.762374877929688	-126.41424560546876	-0.0	-0.0	-0.0	-0.0	-0.0	-0.0	39712.8125	8784.3447265625	-4037.440673828125
0.007	-0.0	-0.0	-0.0	5.404196739196777	16.043472290039062	-491.1987915039063	-7.344249725341797	-16.74878692626953	-125.694580078125	-0.0	-0.0	-0.0	-0.0	-0.0	-0.0	39569.55078125	8771.1513671875	-3989.0498046875
0.0075	-0.0	-0.0	-0.0	5.460600852966309	15.935599327087402	-491.1990356445313	-7.15291166305542	-16.641679763793945	-126.594970703125	-0.0	-0.0	-0.0	-0.0	-0.0	-0.0	39633.78515625	8766.5830078125	-3978.0478515625
0.008	-0.0	-0.0	-0.0	5.634627342224121	15.949999809265137	-490.3050537109375	-7.026787281036377	-16.748458862304688	-126.31954193115234	-0.0	-0.0	-0.0	-0.0	-0.0	-0.0	39674.26953125	8880.697265625	-3954.56884765625
0.0085	-0.0	-0.0	-0.0	4.999720096588135	15.976881980895996	-490.7726135253906	-7.092810153961182	-16.818063735961914	-126.13270568847656	-0.0	-0.0	-0.0	-0.0	-0.0	-0.0	39496.87890625	8751.2001953125	-3971.8896484375
0.009000000000000001	-0.0	-0.0	-0.0	5.229907035827637	15.913628578186035	-490.50775146484375	-7.148592948913574	-17.115997314453125	-125.7673568725586	-0.0	-0.0	-0.0	-0.0	-0.0	-0.0	39523.88671875	8873.9169921875	-3959.680908203125
0.0095	-0.0	-0.0	-0.0	5.091755390167236	15.76095485687256	-491.83306884765625	-6.900998592376709	-16.604476928710938	-125.98493194580078	-0.0	-0.0	-0.0	-0.0	-0.0	-0.0	39666.359375	8749.4580078125	-3924.77880859375
0.01	-0.0	-0.0	-0.0	5.051093101501465	16.006635665893555	-491.0543518066406	-6.760379791259766	-16.88772201538086	-125.08070373535156	-0.0	-0.0	-0.0	-0.0	-0.0	-0.0	39617.78125	8662.60546875	-3949.308349609375
0.0105	-0.0	-0.0	-0.0	5.31585693359375	15.548151969909668	-491.5536804199219	-7.112323760986328	-16.48253059387207	-125.28457641601562	-0.0	-0.0	-0.0	-0.0	-0.0	-0.0	39709.578125	8956.2353515625	-3901.357666015625
0.011	-0.0	-0.0	-0.0	5.300027847290039	15.776081085205078	-489.5798645019531	-7.183134078979492	-16.991634368896484	-126.94768524169922	-0.0	-0.0	-0.0	-0.0	-0.0	-0.0	39715.90234375	8711.5146484375	-3983.59033203125
0.0115	-0.0	-0.0	-0.0	5.066757678985596	15.668725967407228	-490.9201049804688	-6.60093355178833	-16.887529373168945	-126.39288330078124	-0.0	-0.0	-0.0	-0.0	-0.0	-0.0	39960.30078125	8615.1044921875	-3859.234130859375
0.012	-0.0	-0.0	-0.0	5.301560401916504	15.972518920898438	-489.9326171875	-6.7420196533203125	-16.572154998779297	-126.25768280029295	-0.0	-0.0	-0.0	-0.0	-0.0	-0.0	39546.6953125	8629.6689453125	-3919.2294921875
0.0125	-0.0	-0.0	-0.0	4.85492753982544	15.954341888427734	-490.0703430175781	-6.723982334136963	-17.08053207397461	-127.02019500732422	-0.0	-0.0	-0.0	-0.0	-0.0	-0.0	39720.87109375	8758.0107421875	-3841.813232421875
0.013000000000000001	-0.0	-0.0	-0.0	4.978768348693848	15.793086051940918	-491.6938781738281	-7.202384471893311	-16.93986701965332	-127.16193389892578	-0.0	-0.0	-0.0	-0.0	-0.0	-0.0	39845.2265625	8987.21484375	-3866.1396484375
0.0135	-0.0	-0.0	-0.0	5.334630966186523	15.775294303894045	-491.8340148925781	-6.7420196533203125	-16.658023834228516	-127.01698303222656	-0.0	-0.0	-0.0	-0.0	-0.0	-0.0	39960.8828125	8617.98046875	-3865.660888671875
0.014	-0.0	-0.0	-0.0	5.352630615234375	15.865211486816406	-492.3313598632813	-7.008152008056641	-16.957252502441406	-126.81227111816406	-0.0	-0.0	-0.0	-0.0	-0.0	-0.0	39766.640625	8777.7294921875	-3978.305419921875
0.0145	-0.0	-0.0	-0.0	5.156340599060059	15.82964038848877	-490.072265625	-6.777614593505859	-16.78112030029297	-127.50820922851562	-0.0	-0.0	-0.0	-0.0	-0.0	-0.0	39836.8984375	8779.1630859375	-3853.59765625
0.015	-0.0	-0.0	-0.0	5.156423568725586	15.31209945678711	-490.6373596191406	-6.724304676055908	-17.046085357666016	-127.1609115600586	-0.0	-0.0	-0.0	-0.0	-0.0	-0.0	39983.1328125	8805.2177734375	-3948.551025390625
0.0155	-0.0	-0.0	-0.0	5.048959255218506	15.47268295288086	-491.275634765625	-6.706267356872559	-16.657203674316406	-128.13864135742188	-0.0	-0.0	-0.0	-0.0	-0.0	-0.0	39883.171875	8771.3134765625	-3853.519775390625
0.016	-0.0	-0.0	-0.0	5.138025760650635	15.722270011901855	-491.3432922363281	-6.758939266204834	-16.78112030029297	-126.81402587890624	-0.0	-0.0	-0.0	-0.0	-0.0	-0.0	39928.421875	8803.0537109375	-3835.50146484375
0.0165	-0.0	-0.0	-0.0	5.156616687774658	15.740927696228027	-491.1986999511719	-6.9555840492248535	-16.761489868164062	-127.44033813476562	-0.0	-0.0	-0.0	-0.0	-0.0	-0.0	39835.55859375	8769.3046875	-3918.998046875
0.017	-0.0	-0.0	-0.0	4.782278060913086	15.134639739990234	-491.9796752929688	-6.634498119354248	-16.940364837646484	-126.6785125732422	-0.0	-0.0	-0.0	-0.0	-0.0	-0.0	39803.90625	8903.2412109375	-3793.884765625
0.0175	-0.0	-0.0	-0.0	4.693192958831787	15.293697357177734	-491.342529296875	-6.811670303344727	-16.867801666259766	-126.18080139160156	-0.0	-0.0	-0.0	-0.0	-0.0	-0.0	39774.5234375	8893.359375	-3931.15576171875
0.018000000000000002	-0.0	-0.0	-0.0	5.246020793914795	15.276065826416016	-490.4980773925781	-6.796070098876953	-17.153711318969727	-127.15939331054688	-0.0	-0.0	-0.0	-0.0	-0.0	-0.0	39802.39453125	8765.46484375	-3859.720458984375
0.0185	-0.0	-0.0	-0.0	5.104804039001465	15.261085510253906	-490.8514099121094	-7.025434494018555	-17.063291549682617	-127.93457794189452	-0.0	-0.0	-0.0	-0.0	-0.0	-0.0	39483.93359375	8660.712890625	-3889.54052734375
0.019	-0.0	-0.0	-0.0	4.811631202697754	15.583433151245115	-489.928955078125	-6.722109794616699	-17.151531219482422	-125.2670669555664	-0.0	-0.0	-0.0	-0.0	-0.0	-0.0	39512.6953125	8699.3662109375	-3793.72509765625
0.0195	-0.0	-0.0	-0.0	4.978582382202148	15.200563430786133	-491.6390686035156	-7.045448303222656	-17.011959075927734	-126.5277862548828	-0.0	-0.0	-0.0	-0.0	-0.0	-0.0	39663.46484375	8636.7724609375	-3829.252197265625
0.02	-0.0	-0.0	-0.0	4.855103969573975	15.522415161132812	-492.4822387695313	-6.57843017578125	-16.852426528930664	-125.54722595214844	-0.0	-0.0	-0.0	-0.0	-0.0	-0.0	39575.171875	8555.1357421875	-3918.8974609375
0.0205	-0.0	-0.0	-0.0	4.868593215942383	15.3854398727417	-492.21282958984375	-6.59861421585083	-16.587543487548828	-126.80897521972656	-0.0	-0.0	-0.0	-0.0	-0.0	-0.0	39718.7734375	8708.7421875	-3907.497314453125
0.021	-0.0	-0.0	-0.0	5.084999084472656	15.381421089172363	-490.83636474609375	-6.598489761352539	-16.797992706298828	-125.34542846679688	-0.0	-0.0	-0.0	-0.0	-0.0	-0.0	39584.62890625	8822.2333984375	-3901.946533203125
0.021500000000000002	-0.0	-0.0	-0.0	5.263420104980469	15.135218620300291	-489.6590881347656	-6.7420196533203125	-17.0502872467041	-124.76353454589844	-0.0	-0.0	-0.0	-0.0	-0.0	-0.0	39613.8515625	8545.3876953125	-3878.1630859375
0.022	-0.0	-0.0	-0.0	5.497287750244141	15.05824089050293	-491.3401489257813	-6.79246711730957	-16.957763671875	-126.10991668701172	-0.0	-0.0	-0.0	-0.0	-0.0	-0.0	39449.36328125	8648.041015625	-3936.037353515625
0.0225	-0.0	-0.0	-0.0	5.458674907684326	15.491870880126951	-490.5868835449219	-6.670076847076416	-16.864593505859375	-125.9777374267578	-0.0	-0.0	-0.0	-0.0	-0.0	-0.0	39337.0390625	8716.046875	-3900.623779296875
0.023	-0.0	-0.0	-0.0	5.246668815612793	15.558897972106934	-491.5601501464844	-6.836012840270996	-16.797733306884766	-126.3479995727539	-0.0	-0.0	-0.0	-0.0	-0.0	-0.0	39465.51953125	8750.83984375	-3800.5458984375
0.0235	-0.0	-0.0	-0.0	5.07346248626709	15.452906608581545	-492.9070434570313	-6.525757789611816	-16.963333129882812	-125.629150390625	-0.0	-0.0	-0.0	-0.0	-0.0	-0.0	39511.18359375	8513.2412109375	-3837.481201171875
0.024	-0.0	-0.0	-0.0	5.296701431274414	15.297178268432615	-491.1177368164063	-6.475887298583984	-16.974266052246094	-125.75981903076172	-0.0	-0.0	-0.0	-0.0	-0.0	-0.0	39611.07421875	8479.5986328125	-3781.793212890625
0.0245	-0.0	-0.0	-0.0	5.861200332641602	15.162294387817385	-490.85455322265625	-6.669802188873291	-17.268003463745117	-126.80695343017578	-0.0	-0.0	-0.0	-0.0	-0.0	-0.0	39726.4375	8400.0458984375	-3857.851806640625
0.025	-0.0	-0.0	-0.0	5.547546863555908	14.99038791656494	-489.6766662597656	-6.443024635314941	-16.925045013427734	-125.86279296875	-0.0	-0.0	-0.0	-0.0	-0.0	-0.0	40017.078125	8677.318359375	-3781.708740234375
0.025500000000000002	-0.0	-0.0	-0.0	5.286840915679932	15.60478687286377	-490.8274230957031	-6.364001274108887	-17.11809539794922	-126.5218505859375	-0.0	-0.0	-0.0	-0.0	-0.0	-0.0	40028.2890625	8533.15625	-3878.427490234375
0.026000000000000002	-0.0	-0.0	-0.0	5.474570274353027	15.16851806640625	-489.9253845214844	-6.830730438232422	-17.143465042114258	-127.15534973144533	-0.0	-0.0	-0.0	-0.0	-0.0	-0.0	39712.3125	8565.626953125	-3806.20947265625
0.0265	-0.0	-0.0	-0.0	5.773679256439209	15.15216827392578	-491.0149230957031	-6.53209114074707	-17.327232360839844	-128.0106964111328	-0.0	-0.0	-0.0	-0.0	-0.0	-0.0	39933.265625	8366.072265625	-3830.27294921875
0.027	-0.0	-0.0	-0.0	5.612218856811523	15.451996803283691	-491.144775390625	-6.451860904693604	-17.182706832885742	-127.31304168701172	-0.0	-0.0	-0.0	-0.0	-0.0	-0.0	40056.8125	8412.0146484375	-3762.84423828125
